<svg xmlns="http://www.w3.org/2000/svg" id="Layer_1" data-name="Layer 1" viewBox="0 0 24 24">
  <path d="m23.5,11.5h-4.525c-.062-.865-.28-1.686-.629-2.436l3.961-2.19c.241-.134.329-.438.195-.68-.134-.242-.439-.327-.68-.195l-3.959,2.19c-.534-.818-1.232-1.517-2.05-2.05l2.189-3.96c.134-.242.046-.546-.196-.68-.242-.132-.546-.047-.679.195l-2.19,3.961c-.751-.349-1.571-.568-2.437-.629V.5c0-.276-.224-.5-.5-.5s-.5.224-.5.5v4.525c-.865.062-1.686.28-2.437.629l-2.19-3.961c-.133-.241-.436-.329-.679-.195-.242.134-.33.438-.196.68l2.189,3.96c-.818.534-1.517,1.232-2.05,2.05l-3.959-2.19c-.244-.132-.546-.047-.68.195s-.046.546.195.68l3.961,2.19c-.349.751-.568,1.571-.629,2.436H.5c-.276,0-.5.224-.5.5s.224.5.5.5h4.525c.062.865.28,1.686.629,2.436l-3.961,2.19c-.241.134-.329.438-.195.68.091.165.262.258.438.258.082,0,.165-.021.242-.062l3.959-2.19c.534.818,1.232,1.517,2.05,2.05l-2.189,3.96c-.134.242-.046.546.196.68.077.042.159.062.241.062.176,0,.347-.093.438-.258l2.19-3.961c.751.349,1.571.568,2.437.629v4.525c0,.276.224.5.5.5s.5-.224.5-.5v-4.525c.865-.062,1.686-.28,2.437-.629l2.19,3.961c.091.165.262.258.438.258.082,0,.165-.021.241-.062.242-.134.33-.438.196-.68l-2.189-3.96c.818-.534,1.516-1.232,2.05-2.05l3.959,2.19c.077.042.16.062.242.062.176,0,.347-.093.438-.258.134-.242.046-.546-.195-.68l-3.961-2.19c.349-.751.568-1.571.629-2.436h4.525c.276,0,.5-.224.5-.5s-.224-.5-.5-.5Zm-11.5,6.5c-3.309,0-6-2.691-6-6s2.691-6,6-6,6,2.691,6,6-2.691,6-6,6Z" fill="#ffffff"/>
</svg>