<svg xmlns="http://www.w3.org/2000/svg" id="Layer_1" data-name="Layer 1" viewBox="0 0 24 24">
  <path d="m20.794,13.604c.223-.178.443-.366.655-.575,1.576-1.554,2.555-3.783,2.555-5.816,0-5.607-2.511-6.212-3.591-6.212-3.349,0-6.826,4.561-8.412,6.69C10.418,5.565,6.942,1,3.594,1,2.514,1,.003,1.605.003,7.212.003,9.246.982,11.475,2.558,13.029c.221.218.452.413.687.597-1.345,1.239-2.245,3.072-2.245,4.674,0,.847.155,1.49.323,2.061.313,1.062,1.079,1.92,2.1,2.352.453.192.931.288,1.406.288.568,0,1.133-.136,1.647-.406,1.941-1.018,3.888-2.512,5.023-4.116v4.022c0,.276.224.5.5.5s.5-.224.5-.5v-4.022c1.136,1.604,3.083,3.097,5.023,4.116.515.27,1.079.406,1.647.406.475,0,.953-.096,1.406-.288,1.021-.432,1.786-1.289,2.1-2.352.168-.57.323-1.213.323-2.06,0-1.779-.839-3.531-2.206-4.696Zm-9.294,2.215c0,1.772-2.257,4.194-5.488,5.889-.68.356-1.48.388-2.199.083-.744-.315-1.302-.939-1.53-1.713-.169-.576-.282-1.098-.282-1.778,0-1.384.871-3.044,2.101-4.088.901.515,1.928.787,2.879.787,1.924-.026,3.421-.432,4.52-1.169v1.988Zm0-3.24c-.919.911-2.439,1.42-4.533,1.42-1.916,0-3.394-1.373-3.706-1.681-1.393-1.374-2.258-3.33-2.258-5.105,0-3.312.944-5.212,2.591-5.212,2.93,0,6.597,4.931,7.906,6.692v3.886Zm1-3.886c1.312-1.764,4.979-6.692,7.912-6.692,1.646,0,2.591,1.9,2.591,5.212,0,1.775-.865,3.731-2.257,5.104-1.117,1.102-2.436,1.716-3.708,1.682-2.098-.028-3.619-.511-4.538-1.425v-3.881Zm9.218,11.385c-.229.774-.786,1.399-1.53,1.714-.719.305-1.52.272-2.199-.083-3.231-1.695-5.488-4.117-5.488-5.889v-1.992c1.099.739,2.598,1.147,4.524,1.173,1.003.023,1.991-.261,2.915-.802,1.253.96,2.06,2.55,2.06,4.103,0,.68-.113,1.202-.282,1.777ZM12,4c1.103,0,2-.897,2-2s-.897-2-2-2-2,.897-2,2,.897,2,2,2Zm0-3c.552,0,1,.449,1,1s-.448,1-1,1-1-.449-1-1,.448-1,1-1Z" fill="#ffffff"/>
</svg>